<svg id="レイヤー_2" data-name="レイヤー 2" xmlns="http://www.w3.org/2000/svg" viewBox="0 0 330 42"><path d="M11.12,12.92l-1.7,3.8A5.65,5.65,0,0,0,8.83,19c0,.73.3,1.08.67,1.08.54,0,.95,1.62.95,3.62V30c0,2-.46,3.59-1.08,3.59S8.26,32,8.26,30V24.74c0-2.75-.27-3.51-.59-3.51s-1,1.86-2.19,1.86c-.32,0-.48-.27-.48-.78a8.55,8.55,0,0,1,.86-3L8.8,12.59c.79-1.78,2.08-3.43,2.76-3.43h0c.22,0,.32.3.32.73A8.21,8.21,0,0,1,11.12,12.92Zm14.47,4.45a2.4,2.4,0,0,0-2.27,2.48A3.2,3.2,0,0,0,23.54,21L27,30.19a7.53,7.53,0,0,1,.56,2.48c0,.54-.13.87-.43.87-.62,0-1.75-1.49-2.46-3.35l-3.42-8.93a4.93,4.93,0,0,0-4.51-3.05L15,18.29c-1.48.08-2.56-.33-2.56-.87,0-1.89,7.18-.37,7.18-5,0-1.81.54-3.29,1.21-3.29S22,10.54,22,12.29a2.91,2.91,0,0,0,3.08,2.89l1.37-.08c1.41-.08,2.41.33,2.41.81C28.89,16.56,27.4,17.21,25.59,17.37ZM27.08,14c-1.19,0-2.19-2.81-2.19-3.89,0-.59.19-1,.51-1,.62,0,1.49,1.08,2,2.46A4.34,4.34,0,0,1,27.62,13C27.62,13.59,27.43,14,27.08,14Z"/><path d="M49.46,18.58l-4.62,7a2.92,2.92,0,0,0,.95,4.37c1.56.78,2.86,2,2.86,2.75s-1.4.6-3.13-.27l-8.45-4.26c-1.73-.86-3.13-2.16-3.13-2.89s1.4-.57,3.13.3l.65.32a4,4,0,0,0,5.05-1.35L47.08,18a18.77,18.77,0,0,0,2-3.29c0-.21-1.57-.38-3.51-.38H38.74a7.25,7.25,0,0,0-5.31,3l-.3.43c-1.08,1.59-2.4,3-3.16,3s-.54-1.35.46-3L34,12c1-1.64,2.43-3,3.16-3s1,.7.41,1.56.62,1.57,2.53,1.57h7.78c1.94,0,3.51.78,3.51,1.75A11.41,11.41,0,0,1,49.46,18.58Z"/><path d="M75.89,29.25c-.4,0-1.1-.62-1.94-1.65l-6.56-8.07a2,2,0,0,0-1.38-1c-.54,0-.89.6-.89,1.76V30c0,2-.48,3.59-1.13,3.59S62.86,32,62.86,30V20.28c0-1.16-.36-1.75-.9-1.75a2,2,0,0,0-1.37.95L54,27.6c-.83,1-1.54,1.65-1.94,1.65-.19,0-.3-.14-.3-.44,0-.86,1-2.8,2.27-4.34l4.88-6A2.46,2.46,0,0,0,59.56,17c0-.78-.7-1.32-2-1.32H55.38c-2,0-3.62-.48-3.62-1.1s1.62-1.11,3.62-1.11h3.86c2,0,3.62-1,3.62-2.16S63.34,9.11,64,9.11s1.13,1,1.13,2.16,1.62,2.16,3.62,2.16h3.83c2,0,3.62.48,3.62,1.11s-1.62,1.1-3.62,1.1H70.39c-1.3,0-2,.54-2,1.32A2.46,2.46,0,0,0,69,18.45l4.88,6C75.16,26,76.19,28,76.19,28.81,76.19,29.11,76.08,29.25,75.89,29.25Z"/><path d="M96.41,28.38H93.69c-2,0-3.51,1-3.51,2.24s-.51,2.7-1.16,2.7-1.14-1.46-1.14-2.7-1.56-2.24-3.5-2.24H80.22c-2,0-3.51-.51-3.51-1.13s1.56-1.16,3.51-1.16h4.16a3.5,3.5,0,0,0,3.5-3.51V19.29a3.49,3.49,0,0,0-3.5-3.51H80.22c-2,0-3.51-.52-3.51-1.16s1.56-1.14,3.51-1.14h3.29c1.92,0,3.51-.78,3.51-1.75s.51-2.27,1.13-2.27,1.16,1.27,1.16,2.27,1.57,1.75,3.49,1.75h3.61c2,0,3.51.52,3.51,1.14s-1.56,1.16-3.51,1.16H93.69a3.5,3.5,0,0,0-3.51,3.51v3.29a3.5,3.5,0,0,0,3.51,3.51h2.72c2,0,3.51.51,3.51,1.16S98.36,28.38,96.41,28.38Z"/><path d="M114.15,27.06h-1.4c-1.94,0-3.51-.49-3.51-1S110.65,25,112.37,25a3.31,3.31,0,0,0,3.13-3.45A3.49,3.49,0,0,0,112,18h-3.62a3.5,3.5,0,0,0-3.51,3.51v7.74c0,1.95-.49,3.51-1.08,3.51s-1.11-1.56-1.11-3.51V21.53c0-2-.67-3.51-1.51-3.51s-1.51-.49-1.51-1.08.67-1.08,1.51-1.08,1.51-.43,1.51-.95a1.1,1.1,0,1,1,2.19,0c0,.52,1.56.95,3.51.95h5.77a3.5,3.5,0,0,1,3.51,3.51v4.18A3.5,3.5,0,0,1,114.15,27.06Z"/><path d="M135.67,32.46H121.34c-1.94,0-3.51-.51-3.51-1.16s1.57-1.14,3.51-1.14h12a3.33,3.33,0,0,0,3.51-3.29V14c0-2,.51-3.51,1.16-3.51S139.18,12,139.18,14V29A3.5,3.5,0,0,1,135.67,32.46Zm-11.2-18.6h-3.08c-1.94,0-3.51-.51-3.51-1.16s1.57-1.13,3.51-1.13h3.08c1.94,0,3.51.51,3.51,1.13S126.41,13.86,124.47,13.86Z"/><path d="M145.94,29.41c-.08,1.92-1.3,3.48-2.76,3.48s-2.59-.51-2.59-1.16A1.32,1.32,0,0,1,142,30.6c.81,0,1.51-1.57,1.6-3.49l.59-13.6c.08-1.92.67-3.48,1.29-3.48s1.11,1.56,1,3.48Zm15.87,3.48c-1.43,0-2.62-1.56-2.67-3.51l-.27-10.5c-.06-1.94.43-3.51,1.08-3.51s1.18,1.57,1.24,3.51l.24,8.21c0,1.94.76,3.51,1.54,3.51a1.32,1.32,0,0,1,1.43,1.13C164.4,32.38,163.24,32.89,161.81,32.89Zm.24-18.41a3,3,0,1,1,3-3A3,3,0,0,1,162.05,14.48Zm0-4.53a1.53,1.53,0,1,0,1.51,1.51A1.51,1.51,0,0,0,162.08,10Z"/><path d="M186.16,32.89c-1,0-2.91-1.21-4.18-2.67l-3-3.54a2.71,2.71,0,0,0-4.4.11L172,30.11c-1.19,1.54-3.27,2.78-4.67,2.78s-2.51-.51-2.51-1.13.86-1.16,1.94-1.16,2.89-1.25,4.08-2.78l9.47-12.29c1.19-1.53.57-2.78-1.37-2.78h-9.7c-1.94,0-3.5-.51-3.5-1.13s1.56-1.13,3.5-1.13h12.56c1.94,0,3.51.51,3.51,1.13a10.46,10.46,0,0,1-2.14,3.91l-3,3.86a4.47,4.47,0,0,0,.17,5.43L183.14,28c1.27,1.46,2.89,2.65,3.62,2.65a1.24,1.24,0,0,1,1.32,1.16C188.08,32.38,187.21,32.89,186.16,32.89Z"/><path d="M212.52,24.87c-.44,0-.79,1.49-.79,3.32s-.51,3.32-1.16,3.32-1.13-1.48-1.13-3.32a3.43,3.43,0,0,0-3.51-3.32H199.8a3.5,3.5,0,0,1-3.51-3.51V13.54c0-1.95.52-3.51,1.16-3.51s1.16,1.56,1.16,3.51v5.53a3.51,3.51,0,0,0,3.51,3.51h3.81a3.52,3.52,0,0,0,3.51-3.51V13.54c0-1.95.51-3.51,1.13-3.51s1.16,1.56,1.16,3.51v5.53c0,1.94.35,3.51.79,3.51s.81.51.81,1.13S213,24.87,212.52,24.87Z"/><path d="M229,31.49H219c-2.83,0-3.62-1.14-3.62-3.51V23.44a4.24,4.24,0,0,1,4.11-3.86h7.12c1.89,0,3.51-1.27,3.51-2.91V15.24a3.27,3.27,0,0,0-3.51-3h-7.69c-1.94,0-3.51-.51-3.51-1.1s1.57-1.14,3.51-1.14h10a3.51,3.51,0,0,1,3.51,3.51v4.65a3.73,3.73,0,0,1-3.73,3.64h-7.18c-2.13,0-3.83,1.3-3.83,3.1v1.54c0,2.08.78,2.73,3.51,2.73H229c1.94,0,3.51.51,3.51,1.13S230.93,31.49,229,31.49Z"/><path d="M246.78,12.83h-4.05a3.51,3.51,0,0,0-3.51,3.51v1c0,1.94-1.1,3.51-2.45,3.51s-2.46-.51-2.46-1.16a1.24,1.24,0,0,1,1.3-1.14c.7,0,1.29-1.56,1.29-3.5v-1a3.5,3.5,0,0,1,3.51-3.51h6.37c1.94,0,3.51.51,3.51,1.13S248.72,12.83,246.78,12.83Zm6.05,20.06H241.6c-1.94,0-3.51-.51-3.51-1.13s1.57-1.14,3.51-1.14h8.91a3.49,3.49,0,0,0,3.5-3.51v-9c0-1.94.52-3.51,1.17-3.51s1.16,1.57,1.16,3.51V29.38A3.5,3.5,0,0,1,252.83,32.89Zm1-21.59c-.7,1.18-1.7,2.16-2.19,2.16s-.38-1,.33-2.16,1.67-2.14,2.18-2.14S254.47,10.14,253.8,11.3Zm3.67,0c-.68,1.18-1.67,2.16-2.19,2.16s-.35-1,.35-2.16,1.65-2.14,2.16-2.14S258.14,10.14,257.47,11.3Z"/><path d="M261.34,32.86c-1.38,0-2.67-.51-2.67-1.16A1.23,1.23,0,0,1,260,30.57c.7,0,1.49-1.57,1.49-3.51V13.54c0-1.92.53-3.51,1.16-3.51s1.16,1.59,1.16,3.51V29.35C263.77,31.27,262.71,32.86,261.34,32.86Zm19.94-3.42a4.37,4.37,0,0,1-4.15,3.42h-5.05a3.5,3.5,0,0,1-3.51-3.51V13.56c0-1.94.51-3.51,1.16-3.51s1.14,1.57,1.14,3.51v13.5a3.5,3.5,0,0,0,3.5,3.51h.95a4.34,4.34,0,0,0,4.16-3.43l.16-1c.29-1.89,1.16-3.43,1.78-3.43s.81,1.54.46,3.43Z"/><path d="M299.51,22.42h-13.9c-1.94,0-3.51-.52-3.51-1.16s1.57-1.16,3.51-1.16h13.9c1.94,0,3.51.51,3.51,1.16S301.45,22.42,299.51,22.42Z"/><path d="M315.68,14.18H306c-2,0-3.51-.51-3.51-1.16S304,11.86,306,11.86h9.71c1.92,0,3.49.52,3.49,1.16S317.6,14.18,315.68,14.18Zm6.11,15.23a4,4,0,0,1-3.89,3.45h-7c-1.94,0-3.51-.51-3.51-1.13s1.57-1.11,3.51-1.11h4.84a4,4,0,0,0,3.86-3.48l.89-8.2c.21-1.92.89-3.49,1.54-3.49s1,1.57.81,3.49Zm1.56-14.93a3,3,0,1,1,3-3A3,3,0,0,1,323.35,14.48Zm0-4.53a1.53,1.53,0,1,0,1.51,1.51A1.52,1.52,0,0,0,323.35,10Z"/></svg>